<mxfile host="65bd71144e">
    <diagram id="qE0LO72ObkSBFUfMOTbk" name="Page-1">
        <mxGraphModel dx="1762" dy="1276" grid="1" gridSize="10" guides="1" tooltips="1" connect="1" arrows="1" fold="1" page="1" pageScale="1" pageWidth="1600" pageHeight="900" math="0" shadow="0">
            <root>
                <mxCell id="0"/>
                <mxCell id="1" parent="0"/>
                <mxCell id="2" value="&lt;p style=&quot;line-height: 120%;&quot;&gt;&lt;font style=&quot;font-size: 60px;&quot;&gt;Title Bar&lt;/font&gt;&lt;/p&gt;" style="rounded=0;whiteSpace=wrap;html=1;" vertex="1" parent="1">
                    <mxGeometry width="1600" height="90" as="geometry"/>
                </mxCell>
                <mxCell id="5" value="Lists /&lt;br&gt;Categ." style="rounded=0;whiteSpace=wrap;html=1;fontSize=60;" vertex="1" parent="1">
                    <mxGeometry y="120" width="260" height="650" as="geometry"/>
                </mxCell>
                <mxCell id="6" value="Export" style="rounded=0;whiteSpace=wrap;html=1;fontSize=60;" vertex="1" parent="1">
                    <mxGeometry y="800" width="260" height="100" as="geometry"/>
                </mxCell>
                <mxCell id="7" value="To Dos" style="rounded=0;whiteSpace=wrap;html=1;fontSize=60;" vertex="1" parent="1">
                    <mxGeometry x="320" y="120" width="1230" height="750" as="geometry"/>
                </mxCell>
                <mxCell id="8" value="Edit, Due, Comment, Tag, Important" style="rounded=0;whiteSpace=wrap;html=1;fontSize=60;" vertex="1" parent="1">
                    <mxGeometry x="1370" y="120" width="230" height="760" as="geometry"/>
                </mxCell>
            </root>
        </mxGraphModel>
    </diagram>
</mxfile>